<mxfile host="app.diagrams.net" modified="2022-08-25T01:53:01.111Z" agent="5.0 (Windows NT 10.0; Win64; x64) AppleWebKit/537.36 (KHTML, like Gecko) Chrome/103.0.0.0 Safari/537.36" etag="mIDjK3js3PGMErEUu8g0" version="20.2.5" type="github">
  <diagram id="C5RBs43oDa-KdzZeNtuy" name="Page-1">
    <mxGraphModel dx="2249" dy="826" grid="1" gridSize="10" guides="1" tooltips="1" connect="1" arrows="1" fold="1" page="1" pageScale="1" pageWidth="827" pageHeight="1169" math="0" shadow="0">
      <root>
        <mxCell id="WIyWlLk6GJQsqaUBKTNV-0" />
        <mxCell id="WIyWlLk6GJQsqaUBKTNV-1" parent="WIyWlLk6GJQsqaUBKTNV-0" />
        <mxCell id="3sq2q5aOKvz9u4SkfBbp-9" value="project" style="swimlane;fontStyle=1;childLayout=stackLayout;horizontal=1;startSize=26;fillColor=none;horizontalStack=0;resizeParent=1;resizeParentMax=0;resizeLast=0;collapsible=1;marginBottom=0;shadow=0;glass=0;sketch=1;fontFamily=Comic Sans MS;fontSize=16;fontColor=default;strokeColor=default;html=1;swimlaneLine=1;rounded=1;labelBackgroundColor=none;labelBorderColor=none;" parent="WIyWlLk6GJQsqaUBKTNV-1" vertex="1">
          <mxGeometry x="440" y="630" width="250" height="256" as="geometry" />
        </mxCell>
        <mxCell id="G1SJ9XWwTOi_GsLU9m5k-24" value="主要类，angr的入口，初始化二进制程序。" style="text;strokeColor=default;fillColor=none;align=left;verticalAlign=top;spacingLeft=4;spacingRight=4;overflow=hidden;rotatable=0;points=[[0,0.5],[1,0.5]];portConstraint=eastwest;shadow=0;glass=0;sketch=1;fontFamily=Comic Sans MS;fontSize=15;fontColor=default;html=1;whiteSpace=wrap;" vertex="1" parent="3sq2q5aOKvz9u4SkfBbp-9">
          <mxGeometry y="26" width="250" height="54" as="geometry" />
        </mxCell>
        <mxCell id="3sq2q5aOKvz9u4SkfBbp-10" value="- factory&lt;br&gt;该成员是AngrObjectFactory类，在project初始化的时候被初始化。" style="text;strokeColor=default;fillColor=none;align=left;verticalAlign=top;spacingLeft=4;spacingRight=4;overflow=hidden;rotatable=0;points=[[0,0.5],[1,0.5]];portConstraint=eastwest;shadow=0;glass=0;sketch=1;fontFamily=Comic Sans MS;fontSize=15;fontColor=default;html=1;whiteSpace=wrap;" parent="3sq2q5aOKvz9u4SkfBbp-9" vertex="1">
          <mxGeometry y="80" width="250" height="80" as="geometry" />
        </mxCell>
        <mxCell id="3sq2q5aOKvz9u4SkfBbp-11" value="- simos 模拟器/目标操作系统类型，初始化可以手动指定也可以自动根据程序类型初始化。" style="text;strokeColor=default;fillColor=none;align=left;verticalAlign=top;spacingLeft=4;spacingRight=4;overflow=hidden;rotatable=0;points=[[0,0.5],[1,0.5]];portConstraint=eastwest;shadow=0;glass=0;sketch=1;fontFamily=Comic Sans MS;fontSize=15;fontColor=default;html=1;whiteSpace=wrap;" parent="3sq2q5aOKvz9u4SkfBbp-9" vertex="1">
          <mxGeometry y="160" width="250" height="70" as="geometry" />
        </mxCell>
        <mxCell id="3sq2q5aOKvz9u4SkfBbp-12" value="+ field: type" style="text;strokeColor=default;fillColor=none;align=left;verticalAlign=top;spacingLeft=4;spacingRight=4;overflow=hidden;rotatable=0;points=[[0,0.5],[1,0.5]];portConstraint=eastwest;shadow=0;glass=0;sketch=1;fontFamily=Comic Sans MS;fontSize=15;fontColor=default;html=1;" parent="3sq2q5aOKvz9u4SkfBbp-9" vertex="1">
          <mxGeometry y="230" width="250" height="26" as="geometry" />
        </mxCell>
        <mxCell id="w3D9RBcbC0xk_d73lik7-0" value="AngrObjectFactory" style="swimlane;fontStyle=1;childLayout=stackLayout;horizontal=1;startSize=26;fillColor=none;horizontalStack=0;resizeParent=1;resizeParentMax=0;resizeLast=0;collapsible=1;marginBottom=0;shadow=0;glass=0;sketch=1;fontFamily=Comic Sans MS;fontSize=16;fontColor=default;strokeColor=default;html=1;swimlaneLine=1;rounded=1;labelBackgroundColor=none;labelBorderColor=none;" parent="WIyWlLk6GJQsqaUBKTNV-1" vertex="1">
          <mxGeometry x="-140" y="290" width="300" height="390" as="geometry" />
        </mxCell>
        <mxCell id="G1SJ9XWwTOi_GsLU9m5k-25" value="主要负责初始化各种符号执行相关的类/对象，比如程序的初始状态，初始化模拟执行管理器等。" style="text;strokeColor=default;fillColor=none;align=left;verticalAlign=top;spacingLeft=4;spacingRight=4;overflow=hidden;rotatable=0;points=[[0,0.5],[1,0.5]];portConstraint=eastwest;shadow=0;glass=0;sketch=1;fontFamily=Comic Sans MS;fontSize=15;fontColor=default;html=1;whiteSpace=wrap;" vertex="1" parent="w3D9RBcbC0xk_d73lik7-0">
          <mxGeometry y="26" width="300" height="84" as="geometry" />
        </mxCell>
        <mxCell id="w3D9RBcbC0xk_d73lik7-1" value="- project 指向project" style="text;strokeColor=default;fillColor=none;align=left;verticalAlign=middle;spacingLeft=4;spacingRight=4;overflow=hidden;rotatable=0;points=[[0,0.5],[1,0.5]];portConstraint=eastwest;shadow=0;glass=0;sketch=1;fontFamily=Comic Sans MS;fontSize=15;fontColor=default;html=1;" parent="w3D9RBcbC0xk_d73lik7-0" vertex="1">
          <mxGeometry y="110" width="300" height="26" as="geometry" />
        </mxCell>
        <mxCell id="w3D9RBcbC0xk_d73lik7-2" value="+ field: type" style="text;strokeColor=default;fillColor=none;align=left;verticalAlign=middle;spacingLeft=4;spacingRight=4;overflow=hidden;rotatable=0;points=[[0,0.5],[1,0.5]];portConstraint=eastwest;shadow=0;glass=0;sketch=1;fontFamily=Comic Sans MS;fontSize=15;fontColor=default;html=1;" parent="w3D9RBcbC0xk_d73lik7-0" vertex="1">
          <mxGeometry y="136" width="300" height="26" as="geometry" />
        </mxCell>
        <mxCell id="w3D9RBcbC0xk_d73lik7-7" value="" style="line;strokeWidth=1;fillColor=none;align=left;verticalAlign=middle;spacingTop=-1;spacingLeft=3;spacingRight=3;rotatable=0;labelPosition=right;points=[];portConstraint=eastwest;rounded=1;shadow=0;glass=0;labelBackgroundColor=none;labelBorderColor=none;sketch=1;fontFamily=Comic Sans MS;fontSize=15;fontColor=default;startSize=26;html=1;strokeColor=default;" parent="w3D9RBcbC0xk_d73lik7-0" vertex="1">
          <mxGeometry y="162" width="300" height="8" as="geometry" />
        </mxCell>
        <mxCell id="w3D9RBcbC0xk_d73lik7-3" value="&lt;div style=&quot;&quot;&gt;&lt;span style=&quot;background-color: initial;&quot;&gt;+ entry_state(): SimState&lt;/span&gt;&lt;/div&gt;&lt;div style=&quot;&quot;&gt;根据程序入口获得一个初始化状态，返回状态类SimState。&lt;/div&gt;&lt;div style=&quot;&quot;&gt;这里直接调用project.simos.state_entry()&lt;/div&gt;" style="text;strokeColor=default;fillColor=none;align=left;verticalAlign=top;spacingLeft=4;spacingRight=4;overflow=hidden;rotatable=0;points=[[0,0.5],[1,0.5]];portConstraint=eastwest;shadow=0;glass=0;sketch=1;fontFamily=Comic Sans MS;fontSize=15;fontColor=default;html=1;whiteSpace=wrap;" parent="w3D9RBcbC0xk_d73lik7-0" vertex="1">
          <mxGeometry y="170" width="300" height="160" as="geometry" />
        </mxCell>
        <mxCell id="w3D9RBcbC0xk_d73lik7-25" value="simgr()&lt;br&gt;simulation_manager()&lt;br&gt;-&amp;gt;SimulationManager" style="text;strokeColor=default;fillColor=none;align=left;verticalAlign=middle;spacingLeft=4;spacingRight=4;overflow=hidden;rotatable=0;points=[[0,0.5],[1,0.5]];portConstraint=eastwest;shadow=0;glass=0;sketch=1;fontFamily=Comic Sans MS;fontSize=15;fontColor=default;html=1;" parent="w3D9RBcbC0xk_d73lik7-0" vertex="1">
          <mxGeometry y="330" width="300" height="60" as="geometry" />
        </mxCell>
        <mxCell id="w3D9RBcbC0xk_d73lik7-4" style="edgeStyle=orthogonalEdgeStyle;rounded=0;orthogonalLoop=1;jettySize=auto;html=1;entryX=1;entryY=0.036;entryDx=0;entryDy=0;entryPerimeter=0;fontFamily=Comic Sans MS;fontSize=16;fontColor=default;startSize=26;sketch=1;" parent="WIyWlLk6GJQsqaUBKTNV-1" source="3sq2q5aOKvz9u4SkfBbp-10" target="w3D9RBcbC0xk_d73lik7-0" edge="1">
          <mxGeometry relative="1" as="geometry">
            <Array as="points">
              <mxPoint x="280" y="750" />
              <mxPoint x="280" y="304" />
            </Array>
          </mxGeometry>
        </mxCell>
        <mxCell id="w3D9RBcbC0xk_d73lik7-21" value="SimState" style="swimlane;fontStyle=1;childLayout=stackLayout;horizontal=1;startSize=26;fillColor=none;horizontalStack=0;resizeParent=1;resizeParentMax=0;resizeLast=0;collapsible=1;marginBottom=0;shadow=0;glass=0;sketch=1;fontFamily=Comic Sans MS;fontSize=16;fontColor=default;strokeColor=default;html=1;swimlaneLine=1;rounded=1;labelBackgroundColor=none;labelBorderColor=none;" parent="WIyWlLk6GJQsqaUBKTNV-1" vertex="1">
          <mxGeometry x="-160" y="1300" width="170" height="104" as="geometry" />
        </mxCell>
        <mxCell id="w3D9RBcbC0xk_d73lik7-22" value="- project 指向project" style="text;strokeColor=none;fillColor=none;align=left;verticalAlign=top;spacingLeft=4;spacingRight=4;overflow=hidden;rotatable=0;points=[[0,0.5],[1,0.5]];portConstraint=eastwest;shadow=0;glass=0;sketch=1;fontFamily=Comic Sans MS;fontSize=15;fontColor=default;html=1;" parent="w3D9RBcbC0xk_d73lik7-21" vertex="1">
          <mxGeometry y="26" width="170" height="26" as="geometry" />
        </mxCell>
        <mxCell id="w3D9RBcbC0xk_d73lik7-23" value="+ field: type" style="text;strokeColor=none;fillColor=none;align=left;verticalAlign=top;spacingLeft=4;spacingRight=4;overflow=hidden;rotatable=0;points=[[0,0.5],[1,0.5]];portConstraint=eastwest;shadow=0;glass=0;sketch=1;fontFamily=Comic Sans MS;fontSize=15;fontColor=default;html=1;" parent="w3D9RBcbC0xk_d73lik7-21" vertex="1">
          <mxGeometry y="52" width="170" height="26" as="geometry" />
        </mxCell>
        <mxCell id="w3D9RBcbC0xk_d73lik7-24" value="+ field: type" style="text;strokeColor=none;fillColor=none;align=left;verticalAlign=top;spacingLeft=4;spacingRight=4;overflow=hidden;rotatable=0;points=[[0,0.5],[1,0.5]];portConstraint=eastwest;shadow=0;glass=0;sketch=1;fontFamily=Comic Sans MS;fontSize=15;fontColor=default;html=1;" parent="w3D9RBcbC0xk_d73lik7-21" vertex="1">
          <mxGeometry y="78" width="170" height="26" as="geometry" />
        </mxCell>
        <mxCell id="G1SJ9XWwTOi_GsLU9m5k-4" value="list" style="swimlane;fontStyle=1;childLayout=stackLayout;horizontal=1;startSize=26;fillColor=none;horizontalStack=0;resizeParent=1;resizeParentMax=0;resizeLast=0;collapsible=1;marginBottom=0;shadow=0;glass=0;sketch=1;fontFamily=Comic Sans MS;fontSize=16;fontColor=default;strokeColor=default;html=1;swimlaneLine=1;rounded=1;labelBackgroundColor=none;labelBorderColor=none;" vertex="1" parent="WIyWlLk6GJQsqaUBKTNV-1">
          <mxGeometry x="910" y="490" width="250" height="104" as="geometry" />
        </mxCell>
        <mxCell id="G1SJ9XWwTOi_GsLU9m5k-5" value="&lt;span style=&quot;font-size: 16px; font-weight: 700; text-align: center;&quot;&gt;AngrObjectFactory&lt;/span&gt;" style="text;strokeColor=default;fillColor=none;align=left;verticalAlign=top;spacingLeft=4;spacingRight=4;overflow=hidden;rotatable=0;points=[[0,0.5],[1,0.5]];portConstraint=eastwest;shadow=0;glass=0;sketch=1;fontFamily=Comic Sans MS;fontSize=15;fontColor=default;html=1;" vertex="1" parent="G1SJ9XWwTOi_GsLU9m5k-4">
          <mxGeometry y="26" width="250" height="26" as="geometry" />
        </mxCell>
        <mxCell id="G1SJ9XWwTOi_GsLU9m5k-6" value="&lt;span style=&quot;font-size: 16px; font-weight: 700; text-align: center;&quot;&gt;SimState&lt;/span&gt;" style="text;strokeColor=default;fillColor=none;align=left;verticalAlign=top;spacingLeft=4;spacingRight=4;overflow=hidden;rotatable=0;points=[[0,0.5],[1,0.5]];portConstraint=eastwest;shadow=0;glass=0;sketch=1;fontFamily=Comic Sans MS;fontSize=15;fontColor=default;html=1;" vertex="1" parent="G1SJ9XWwTOi_GsLU9m5k-4">
          <mxGeometry y="52" width="250" height="26" as="geometry" />
        </mxCell>
        <mxCell id="G1SJ9XWwTOi_GsLU9m5k-7" value="+ field: type" style="text;strokeColor=default;fillColor=none;align=left;verticalAlign=top;spacingLeft=4;spacingRight=4;overflow=hidden;rotatable=0;points=[[0,0.5],[1,0.5]];portConstraint=eastwest;shadow=0;glass=0;sketch=1;fontFamily=Comic Sans MS;fontSize=15;fontColor=default;html=1;" vertex="1" parent="G1SJ9XWwTOi_GsLU9m5k-4">
          <mxGeometry y="78" width="250" height="26" as="geometry" />
        </mxCell>
        <mxCell id="G1SJ9XWwTOi_GsLU9m5k-8" value="SimulationManager" style="swimlane;fontStyle=1;childLayout=stackLayout;horizontal=1;startSize=26;fillColor=none;horizontalStack=0;resizeParent=1;resizeParentMax=0;resizeLast=0;collapsible=1;marginBottom=0;shadow=0;glass=0;sketch=1;fontFamily=Comic Sans MS;fontSize=16;fontColor=default;strokeColor=default;html=1;swimlaneLine=1;rounded=1;labelBackgroundColor=none;labelBorderColor=none;" vertex="1" parent="WIyWlLk6GJQsqaUBKTNV-1">
          <mxGeometry x="470" y="1090" width="195" height="216" as="geometry" />
        </mxCell>
        <mxCell id="G1SJ9XWwTOi_GsLU9m5k-9" value="_project" style="text;strokeColor=none;fillColor=none;align=left;verticalAlign=top;spacingLeft=4;spacingRight=4;overflow=hidden;rotatable=0;points=[[0,0.5],[1,0.5]];portConstraint=eastwest;shadow=0;glass=0;sketch=1;fontFamily=Comic Sans MS;fontSize=15;fontColor=default;html=1;" vertex="1" parent="G1SJ9XWwTOi_GsLU9m5k-8">
          <mxGeometry y="26" width="195" height="26" as="geometry" />
        </mxCell>
        <mxCell id="G1SJ9XWwTOi_GsLU9m5k-10" value="+ field: type" style="text;strokeColor=none;fillColor=none;align=left;verticalAlign=top;spacingLeft=4;spacingRight=4;overflow=hidden;rotatable=0;points=[[0,0.5],[1,0.5]];portConstraint=eastwest;shadow=0;glass=0;sketch=1;fontFamily=Comic Sans MS;fontSize=15;fontColor=default;html=1;" vertex="1" parent="G1SJ9XWwTOi_GsLU9m5k-8">
          <mxGeometry y="52" width="195" height="26" as="geometry" />
        </mxCell>
        <mxCell id="G1SJ9XWwTOi_GsLU9m5k-11" value="+ field: type" style="text;strokeColor=none;fillColor=none;align=left;verticalAlign=top;spacingLeft=4;spacingRight=4;overflow=hidden;rotatable=0;points=[[0,0.5],[1,0.5]];portConstraint=eastwest;shadow=0;glass=0;sketch=1;fontFamily=Comic Sans MS;fontSize=15;fontColor=default;html=1;" vertex="1" parent="G1SJ9XWwTOi_GsLU9m5k-8">
          <mxGeometry y="78" width="195" height="26" as="geometry" />
        </mxCell>
        <mxCell id="G1SJ9XWwTOi_GsLU9m5k-12" value="" style="line;strokeWidth=1;fillColor=none;align=left;verticalAlign=middle;spacingTop=-1;spacingLeft=3;spacingRight=3;rotatable=0;labelPosition=right;points=[];portConstraint=eastwest;rounded=1;shadow=0;glass=0;labelBackgroundColor=none;labelBorderColor=none;sketch=1;fontFamily=Comic Sans MS;fontSize=15;fontColor=default;startSize=26;html=1;strokeColor=default;" vertex="1" parent="G1SJ9XWwTOi_GsLU9m5k-8">
          <mxGeometry y="104" width="195" height="8" as="geometry" />
        </mxCell>
        <mxCell id="G1SJ9XWwTOi_GsLU9m5k-13" value="explore()" style="text;strokeColor=default;fillColor=none;align=left;verticalAlign=middle;spacingLeft=4;spacingRight=4;overflow=hidden;rotatable=0;points=[[0,0.5],[1,0.5]];portConstraint=eastwest;shadow=0;glass=0;sketch=1;fontFamily=Comic Sans MS;fontSize=15;fontColor=default;html=1;" vertex="1" parent="G1SJ9XWwTOi_GsLU9m5k-8">
          <mxGeometry y="112" width="195" height="26" as="geometry" />
        </mxCell>
        <mxCell id="G1SJ9XWwTOi_GsLU9m5k-15" value="use_technique()" style="text;strokeColor=default;fillColor=none;align=left;verticalAlign=middle;spacingLeft=4;spacingRight=4;overflow=hidden;rotatable=0;points=[[0,0.5],[1,0.5]];portConstraint=eastwest;shadow=0;glass=0;sketch=1;fontFamily=Comic Sans MS;fontSize=15;fontColor=default;html=1;" vertex="1" parent="G1SJ9XWwTOi_GsLU9m5k-8">
          <mxGeometry y="138" width="195" height="26" as="geometry" />
        </mxCell>
        <mxCell id="G1SJ9XWwTOi_GsLU9m5k-20" value="step()&lt;span style=&quot;white-space: pre;&quot;&gt;	&lt;/span&gt;" style="text;strokeColor=default;fillColor=none;align=left;verticalAlign=middle;spacingLeft=4;spacingRight=4;overflow=hidden;rotatable=0;points=[[0,0.5],[1,0.5]];portConstraint=eastwest;shadow=0;glass=0;sketch=1;fontFamily=Comic Sans MS;fontSize=15;fontColor=default;html=1;" vertex="1" parent="G1SJ9XWwTOi_GsLU9m5k-8">
          <mxGeometry y="164" width="195" height="26" as="geometry" />
        </mxCell>
        <mxCell id="G1SJ9XWwTOi_GsLU9m5k-21" value="run()" style="text;strokeColor=default;fillColor=none;align=left;verticalAlign=middle;spacingLeft=4;spacingRight=4;overflow=hidden;rotatable=0;points=[[0,0.5],[1,0.5]];portConstraint=eastwest;shadow=0;glass=0;sketch=1;fontFamily=Comic Sans MS;fontSize=15;fontColor=default;html=1;" vertex="1" parent="G1SJ9XWwTOi_GsLU9m5k-8">
          <mxGeometry y="190" width="195" height="26" as="geometry" />
        </mxCell>
        <mxCell id="G1SJ9XWwTOi_GsLU9m5k-16" value="Explorer" style="swimlane;fontStyle=1;childLayout=stackLayout;horizontal=1;startSize=26;fillColor=none;horizontalStack=0;resizeParent=1;resizeParentMax=0;resizeLast=0;collapsible=1;marginBottom=0;shadow=0;glass=0;sketch=1;fontFamily=Comic Sans MS;fontSize=16;fontColor=default;strokeColor=default;html=1;swimlaneLine=1;rounded=1;labelBackgroundColor=none;labelBorderColor=none;" vertex="1" parent="WIyWlLk6GJQsqaUBKTNV-1">
          <mxGeometry x="740" y="930" width="140" height="104" as="geometry" />
        </mxCell>
        <mxCell id="G1SJ9XWwTOi_GsLU9m5k-17" value="factory&lt;br style=&quot;font-size: 15px;&quot;&gt;" style="text;strokeColor=default;fillColor=none;align=left;verticalAlign=top;spacingLeft=4;spacingRight=4;overflow=hidden;rotatable=0;points=[[0,0.5],[1,0.5]];portConstraint=eastwest;shadow=0;glass=0;sketch=1;fontFamily=Comic Sans MS;fontSize=15;fontColor=default;html=1;" vertex="1" parent="G1SJ9XWwTOi_GsLU9m5k-16">
          <mxGeometry y="26" width="140" height="26" as="geometry" />
        </mxCell>
        <mxCell id="G1SJ9XWwTOi_GsLU9m5k-18" value="+ field: type" style="text;strokeColor=default;fillColor=none;align=left;verticalAlign=top;spacingLeft=4;spacingRight=4;overflow=hidden;rotatable=0;points=[[0,0.5],[1,0.5]];portConstraint=eastwest;shadow=0;glass=0;sketch=1;fontFamily=Comic Sans MS;fontSize=15;fontColor=default;html=1;" vertex="1" parent="G1SJ9XWwTOi_GsLU9m5k-16">
          <mxGeometry y="52" width="140" height="26" as="geometry" />
        </mxCell>
        <mxCell id="G1SJ9XWwTOi_GsLU9m5k-19" value="+ field: type" style="text;strokeColor=default;fillColor=none;align=left;verticalAlign=top;spacingLeft=4;spacingRight=4;overflow=hidden;rotatable=0;points=[[0,0.5],[1,0.5]];portConstraint=eastwest;shadow=0;glass=0;sketch=1;fontFamily=Comic Sans MS;fontSize=15;fontColor=default;html=1;" vertex="1" parent="G1SJ9XWwTOi_GsLU9m5k-16">
          <mxGeometry y="78" width="140" height="26" as="geometry" />
        </mxCell>
        <mxCell id="G1SJ9XWwTOi_GsLU9m5k-38" value="SimLinux(SimUserland)" style="swimlane;fontStyle=1;childLayout=stackLayout;horizontal=1;startSize=26;fillColor=none;horizontalStack=0;resizeParent=1;resizeParentMax=0;resizeLast=0;collapsible=1;marginBottom=0;shadow=0;glass=0;sketch=1;fontFamily=Comic Sans MS;fontSize=16;fontColor=default;strokeColor=default;html=1;swimlaneLine=1;rounded=1;labelBackgroundColor=none;labelBorderColor=none;" vertex="1" parent="WIyWlLk6GJQsqaUBKTNV-1">
          <mxGeometry x="-140" y="752" width="300" height="360" as="geometry" />
        </mxCell>
        <mxCell id="G1SJ9XWwTOi_GsLU9m5k-39" value="xxx" style="text;strokeColor=default;fillColor=none;align=left;verticalAlign=top;spacingLeft=4;spacingRight=4;overflow=hidden;rotatable=0;points=[[0,0.5],[1,0.5]];portConstraint=eastwest;shadow=0;glass=0;sketch=1;fontFamily=Comic Sans MS;fontSize=15;fontColor=default;html=1;" vertex="1" parent="G1SJ9XWwTOi_GsLU9m5k-38">
          <mxGeometry y="26" width="300" height="32" as="geometry" />
        </mxCell>
        <mxCell id="G1SJ9XWwTOi_GsLU9m5k-42" value="" style="line;strokeWidth=1;fillColor=none;align=left;verticalAlign=middle;spacingTop=-1;spacingLeft=3;spacingRight=3;rotatable=0;labelPosition=right;points=[];portConstraint=eastwest;rounded=1;shadow=0;glass=0;labelBackgroundColor=none;labelBorderColor=none;sketch=1;fontFamily=Comic Sans MS;fontSize=15;fontColor=default;startSize=26;html=1;strokeColor=default;" vertex="1" parent="G1SJ9XWwTOi_GsLU9m5k-38">
          <mxGeometry y="58" width="300" height="8" as="geometry" />
        </mxCell>
        <mxCell id="G1SJ9XWwTOi_GsLU9m5k-40" value="+ state_entry(): SimState&lt;br&gt;直接调用了state_blank" style="text;strokeColor=default;fillColor=none;align=left;verticalAlign=top;spacingLeft=4;spacingRight=4;overflow=hidden;rotatable=0;points=[[0,0.5],[1,0.5]];portConstraint=eastwest;shadow=0;glass=0;sketch=1;fontFamily=Comic Sans MS;fontSize=15;fontColor=default;html=1;" vertex="1" parent="G1SJ9XWwTOi_GsLU9m5k-38">
          <mxGeometry y="66" width="300" height="54" as="geometry" />
        </mxCell>
        <mxCell id="G1SJ9XWwTOi_GsLU9m5k-41" value="+ state_blank(): SimState&lt;br&gt;state_entry、state_init、state_call都调用了这个函数，用于初始化一个SimState状态。&lt;br&gt;如果用户定义了stdin 的文件，则初始化，stdin属于SimFileStream类，后续用来注册&#39;posix&#39;类" style="text;strokeColor=default;fillColor=none;align=left;verticalAlign=top;spacingLeft=4;spacingRight=4;overflow=hidden;rotatable=0;points=[[0,0.5],[1,0.5]];portConstraint=eastwest;shadow=0;glass=0;sketch=1;fontFamily=Comic Sans MS;fontSize=15;fontColor=default;html=1;whiteSpace=wrap;" vertex="1" parent="G1SJ9XWwTOi_GsLU9m5k-38">
          <mxGeometry y="120" width="300" height="240" as="geometry" />
        </mxCell>
        <mxCell id="G1SJ9XWwTOi_GsLU9m5k-43" style="edgeStyle=orthogonalEdgeStyle;rounded=0;orthogonalLoop=1;jettySize=auto;html=1;entryX=1.003;entryY=0.153;entryDx=0;entryDy=0;entryPerimeter=0;sketch=1;" edge="1" parent="WIyWlLk6GJQsqaUBKTNV-1" source="3sq2q5aOKvz9u4SkfBbp-11" target="G1SJ9XWwTOi_GsLU9m5k-38">
          <mxGeometry relative="1" as="geometry" />
        </mxCell>
      </root>
    </mxGraphModel>
  </diagram>
</mxfile>
